<svg preserveAspectRatio="none" overflow="visible" style="display: block;" width="501" height="51" viewBox="0 0 501 51" fill="none" xmlns="http://www.w3.org/2000/svg">
<g id="Dot Pattern &#226;&#128;&#148; Top" clip-path="url(#clip0_0_18)">
<circle id="Ellipse" cx="28.2132" cy="11.51" r="3.5452" fill="#0051E4" fill-opacity="0.55"/>
<circle id="Ellipse_2" cx="62.2469" cy="11.5096" r="3.3543" fill="#0051E4" fill-opacity="0.519231"/>
<circle id="Ellipse_3" cx="96.2806" cy="11.5101" r="3.16341" fill="#0051E4" fill-opacity="0.488462"/>
<circle id="Ellipse_4" cx="130.314" cy="11.5096" r="2.97251" fill="#0051E4" fill-opacity="0.457692"/>
<circle id="Ellipse_5" cx="164.348" cy="11.5092" r="2.78162" fill="#0051E4" fill-opacity="0.426923"/>
<circle id="Ellipse_6" cx="198.382" cy="11.5097" r="2.59072" fill="#0051E4" fill-opacity="0.396154"/>
<circle id="Ellipse_7" cx="232.415" cy="11.5092" r="2.39983" fill="#0051E4" fill-opacity="0.365385"/>
<circle id="Ellipse_8" cx="266.449" cy="11.5097" r="2.20893" fill="#0051E4" fill-opacity="0.334615"/>
<circle id="Ellipse_9" cx="300.485" cy="11.5102" r="2.01803" fill="#0051E4" fill-opacity="0.303846"/>
<circle id="Ellipse_10" cx="334.519" cy="11.5098" r="1.82714" fill="#0051E4" fill-opacity="0.273077"/>
<circle id="Ellipse_11" cx="368.552" cy="11.5103" r="1.63624" fill="#0051E4" fill-opacity="0.242308"/>
<circle id="Ellipse_12" cx="402.586" cy="11.5098" r="1.44535" fill="#0051E4" fill-opacity="0.211538"/>
<circle id="Ellipse_13" cx="436.62" cy="11.5094" r="1.25445" fill="#0051E4" fill-opacity="0.180769"/>
<circle id="Ellipse_14" cx="470.653" cy="11.5099" r="1.06356" fill="#0051E4" fill-opacity="0.15"/>
<circle id="Ellipse_15" cx="28.2132" cy="25.6907" r="3.5452" fill="#0051E4" fill-opacity="0.55"/>
<circle id="Ellipse_16" cx="62.2469" cy="25.6902" r="3.3543" fill="#0051E4" fill-opacity="0.519231"/>
<circle id="Ellipse_17" cx="96.2806" cy="25.6908" r="3.16341" fill="#0051E4" fill-opacity="0.488462"/>
<circle id="Ellipse_18" cx="130.314" cy="25.6903" r="2.97251" fill="#0051E4" fill-opacity="0.457692"/>
<circle id="Ellipse_19" cx="164.348" cy="25.6908" r="2.78162" fill="#0051E4" fill-opacity="0.426923"/>
<circle id="Ellipse_20" cx="198.382" cy="25.6903" r="2.59072" fill="#0051E4" fill-opacity="0.396154"/>
<circle id="Ellipse_21" cx="232.415" cy="25.6909" r="2.39983" fill="#0051E4" fill-opacity="0.365385"/>
<circle id="Ellipse_22" cx="266.449" cy="25.6904" r="2.20893" fill="#0051E4" fill-opacity="0.334615"/>
<circle id="Ellipse_23" cx="300.485" cy="25.6899" r="2.01803" fill="#0051E4" fill-opacity="0.303846"/>
<circle id="Ellipse_24" cx="334.519" cy="25.6904" r="1.82714" fill="#0051E4" fill-opacity="0.273077"/>
<circle id="Ellipse_25" cx="368.552" cy="25.69" r="1.63624" fill="#0051E4" fill-opacity="0.242308"/>
<circle id="Ellipse_26" cx="402.586" cy="25.6905" r="1.44535" fill="#0051E4" fill-opacity="0.211538"/>
<circle id="Ellipse_27" cx="436.62" cy="25.691" r="1.25445" fill="#0051E4" fill-opacity="0.180769"/>
<circle id="Ellipse_28" cx="470.653" cy="25.6906" r="1.06356" fill="#0051E4" fill-opacity="0.15"/>
<circle id="Ellipse_29" cx="28.2132" cy="39.8714" r="3.5452" fill="#0051E4" fill-opacity="0.55"/>
<circle id="Ellipse_30" cx="62.2469" cy="39.8709" r="3.3543" fill="#0051E4" fill-opacity="0.519231"/>
<circle id="Ellipse_31" cx="96.2806" cy="39.8714" r="3.16341" fill="#0051E4" fill-opacity="0.488462"/>
<circle id="Ellipse_32" cx="130.314" cy="39.871" r="2.97251" fill="#0051E4" fill-opacity="0.457692"/>
<circle id="Ellipse_33" cx="164.348" cy="39.8715" r="2.78162" fill="#0051E4" fill-opacity="0.426923"/>
<circle id="Ellipse_34" cx="198.382" cy="39.871" r="2.59072" fill="#0051E4" fill-opacity="0.396154"/>
<circle id="Ellipse_35" cx="232.415" cy="39.8715" r="2.39983" fill="#0051E4" fill-opacity="0.365385"/>
<circle id="Ellipse_36" cx="266.449" cy="39.8711" r="2.20893" fill="#0051E4" fill-opacity="0.334615"/>
<circle id="Ellipse_37" cx="300.485" cy="39.8716" r="2.01803" fill="#0051E4" fill-opacity="0.303846"/>
<circle id="Ellipse_38" cx="334.519" cy="39.8711" r="1.82714" fill="#0051E4" fill-opacity="0.273077"/>
<circle id="Ellipse_39" cx="368.552" cy="39.8716" r="1.63624" fill="#0051E4" fill-opacity="0.242308"/>
<circle id="Ellipse_40" cx="402.586" cy="39.8712" r="1.44535" fill="#0051E4" fill-opacity="0.211538"/>
<circle id="Ellipse_41" cx="436.62" cy="39.8717" r="1.25445" fill="#0051E4" fill-opacity="0.180769"/>
<circle id="Ellipse_42" cx="470.653" cy="39.8712" r="1.06356" fill="#0051E4" fill-opacity="0.15"/>
<circle id="Ellipse_43" cx="28.2132" cy="54.052" r="3.5452" fill="#0051E4" fill-opacity="0.55"/>
<circle id="Ellipse_44" cx="62.2469" cy="54.0516" r="3.3543" fill="#0051E4" fill-opacity="0.519231"/>
<circle id="Ellipse_45" cx="96.2806" cy="54.0521" r="3.16341" fill="#0051E4" fill-opacity="0.488462"/>
<circle id="Ellipse_46" cx="130.314" cy="54.0526" r="2.97251" fill="#0051E4" fill-opacity="0.457692"/>
<circle id="Ellipse_47" cx="164.348" cy="54.0521" r="2.78162" fill="#0051E4" fill-opacity="0.426923"/>
<circle id="Ellipse_48" cx="198.382" cy="54.0517" r="2.59072" fill="#0051E4" fill-opacity="0.396154"/>
<circle id="Ellipse_49" cx="232.415" cy="54.0522" r="2.39983" fill="#0051E4" fill-opacity="0.365385"/>
<circle id="Ellipse_50" cx="266.449" cy="54.0517" r="2.20893" fill="#0051E4" fill-opacity="0.334615"/>
<circle id="Ellipse_51" cx="300.485" cy="54.0522" r="2.01803" fill="#0051E4" fill-opacity="0.303846"/>
<circle id="Ellipse_52" cx="334.519" cy="54.0518" r="1.82714" fill="#0051E4" fill-opacity="0.273077"/>
<circle id="Ellipse_53" cx="368.552" cy="54.0523" r="1.63624" fill="#0051E4" fill-opacity="0.242308"/>
<circle id="Ellipse_54" cx="402.586" cy="54.0518" r="1.44535" fill="#0051E4" fill-opacity="0.211538"/>
<circle id="Ellipse_55" cx="436.62" cy="54.0523" r="1.25445" fill="#0051E4" fill-opacity="0.180769"/>
<circle id="Ellipse_56" cx="470.653" cy="54.0519" r="1.06356" fill="#0051E4" fill-opacity="0.15"/>
<circle id="Ellipse_57" cx="28.2132" cy="68.2327" r="3.5452" fill="#0051E4" fill-opacity="0.55"/>
<circle id="Ellipse_58" cx="62.2469" cy="68.2332" r="3.3543" fill="#0051E4" fill-opacity="0.519231"/>
<circle id="Ellipse_59" cx="96.2806" cy="68.2327" r="3.16341" fill="#0051E4" fill-opacity="0.488462"/>
<circle id="Ellipse_60" cx="130.314" cy="68.2323" r="2.97251" fill="#0051E4" fill-opacity="0.457692"/>
<circle id="Ellipse_61" cx="164.348" cy="68.2328" r="2.78162" fill="#0051E4" fill-opacity="0.426923"/>
<circle id="Ellipse_62" cx="198.382" cy="68.2323" r="2.59072" fill="#0051E4" fill-opacity="0.396154"/>
<circle id="Ellipse_63" cx="232.415" cy="68.2329" r="2.39983" fill="#0051E4" fill-opacity="0.365385"/>
<circle id="Ellipse_64" cx="266.449" cy="68.2334" r="2.20893" fill="#0051E4" fill-opacity="0.334615"/>
<circle id="Ellipse_65" cx="300.485" cy="68.2329" r="2.01803" fill="#0051E4" fill-opacity="0.303846"/>
<circle id="Ellipse_66" cx="334.519" cy="68.2334" r="1.82714" fill="#0051E4" fill-opacity="0.273077"/>
<circle id="Ellipse_67" cx="368.552" cy="68.233" r="1.63624" fill="#0051E4" fill-opacity="0.242308"/>
<circle id="Ellipse_68" cx="402.586" cy="68.2325" r="1.44535" fill="#0051E4" fill-opacity="0.211538"/>
<circle id="Ellipse_69" cx="436.62" cy="68.233" r="1.25445" fill="#0051E4" fill-opacity="0.180769"/>
<circle id="Ellipse_70" cx="470.653" cy="68.2325" r="1.06356" fill="#0051E4" fill-opacity="0.15"/>
</g>
<defs>
<clipPath id="clip0_0_18">
<rect width="501" height="51" fill="white"/>
</clipPath>
</defs>
</svg>
