<svg preserveAspectRatio="none" overflow="visible" style="display: block;" width="13.65" height="13.65" viewBox="0 0 13.65 13.65" fill="none" xmlns="http://www.w3.org/2000/svg">
<g id="file" clip-path="url(#clip0_0_8)">
<path id="Vector" d="M7.96232 1.13672H3.41278C3.11112 1.13672 2.82182 1.25657 2.60852 1.46991C2.39522 1.68325 2.27539 1.9726 2.27539 2.27431V11.375C2.27539 11.6767 2.39522 11.9661 2.60852 12.1794C2.82182 12.3928 3.11112 12.5126 3.41278 12.5126H10.2371C10.5387 12.5126 10.828 12.3928 11.0413 12.1794C11.2546 11.9661 11.3745 11.6767 11.3745 11.375V4.54949M7.96232 1.13672C8.14234 1.13643 8.32064 1.17176 8.48696 1.24068C8.65327 1.3096 8.80431 1.41074 8.93137 1.53829L10.9718 3.57913C11.0997 3.70626 11.2011 3.85747 11.2702 4.02402C11.3393 4.19057 11.3748 4.36917 11.3745 4.54949M7.96232 1.13672V3.9807C7.96232 4.13155 8.02224 4.27623 8.12889 4.38289C8.23554 4.48956 8.38019 4.54949 8.53101 4.54949L11.3745 4.54949" stroke="#15803D" stroke-width="1.95" stroke-linecap="round"/>
</g>
<defs>
<clipPath id="clip0_0_8">
<rect width="13.65" height="13.65" fill="white"/>
</clipPath>
</defs>
</svg>
